<svg width="41" height="100" viewBox="0 0 41 100" fill="none" xmlns="http://www.w3.org/2000/svg">
<g id="XMLID_524_">
<path id="XMLID_530_" d="M36.122 49.5932C33.3401 46.8465 29.548 45.3342 25.4437 45.3342C25.2757 45.3342 25.1098 45.3366 24.9456 45.3419C23.8656 41.0253 22.8557 37.4923 22.168 35.1943C21.882 34.2389 21.614 33.3146 21.3633 32.4228C24.5178 28.963 27.352 25.6394 28.9253 22.286C33.386 12.7788 31.3595 7.1217 29.7544 4.59572C27.8987 1.67512 24.842 0 21.3681 0C18.2099 0 15.6041 1.25776 13.8326 3.63712C10.3583 8.30354 10.3303 16.9401 13.8038 30.5697C7.16149 37.7924 0 45.9734 0 56.1573C0 66.917 5.89145 72.1943 10.8341 74.7266C15.9565 77.3512 21.0669 77.5094 21.2819 77.5149L21.3681 77.516C22.0666 77.516 22.7574 77.4872 23.4387 77.4301L23.4621 77.769C23.7656 82.1418 24.0279 85.9182 23.4628 89.215C22.9241 92.3571 20.8 93.307 19.1424 93.1663C18.4445 93.107 16.8214 92.7699 16.8214 90.9277H10.0018C10.0018 95.7398 13.6028 99.5392 18.5641 99.9614C18.8664 99.987 19.1678 100 19.4688 100C21.7543 99.9998 23.9788 99.2635 25.8142 97.8846C28.1281 96.1463 29.6393 93.5468 30.1844 90.3673C30.888 86.2631 30.5995 82.1079 30.2654 77.2964L30.1933 76.2546C30.1835 76.1091 30.1733 75.9639 30.1626 75.8184C31.7314 75.159 33.1712 74.3154 34.4378 73.302C38.3793 70.1486 40.4627 65.6318 40.4627 60.2395C40.4629 56.138 38.9213 52.357 36.122 49.5932ZM19.3024 7.70978C19.6468 7.24741 20.1351 6.81959 21.3678 6.81959C22.1523 6.81959 23.2457 7.06828 23.9986 8.2533C24.5353 9.09802 26.032 12.3978 22.7515 19.3895C22.0321 20.923 20.8286 22.5965 19.3627 24.3664C16.936 12.8017 18.3925 8.93185 19.3024 7.70978ZM21.4322 70.6964C21.0312 70.6767 17.3222 70.4443 13.7642 68.5642C9.09121 66.095 6.8196 62.0367 6.8196 56.1573C6.8196 49.8087 11.1682 43.8125 15.9842 38.3302C16.645 40.5895 17.5107 43.6947 18.4215 47.3566C15.48 49.4275 14.0938 52.7884 14.0938 55.9964C14.0938 58.5787 15.1431 60.7851 17.0483 62.2092C18.51 63.3017 20.2483 63.7761 21.8643 63.9148C22.2251 66.1257 22.5483 68.3773 22.8159 70.6367C22.3512 70.6751 21.8886 70.6946 21.4322 70.6964ZM29.4229 68.503C28.6962 62.8166 27.6553 57.2339 26.5587 52.2181C30.7248 52.7066 33.6433 55.9298 33.6433 60.2397C33.6433 64.2106 31.8934 66.8629 29.4229 68.503Z" fill="#22C55E"/>
</g>
</svg>
